<?xml version="1.0" ?><!DOCTYPE svg  PUBLIC '-//W3C//DTD SVG 1.1//EN'  'http://www.w3.org/Graphics/SVG/1.1/DTD/svg11.dtd'><svg enable-background="new 0 0 128 128" id="Слой_1" version="1.1" viewBox="0 0 128 128" xml:space="preserve" xmlns="http://www.w3.org/2000/svg" xmlns:xlink="http://www.w3.org/1999/xlink"><g><g><path d="M34,111h70h2h16v8h4v-12h-20V39c0-17.6-14.4-32-32-32H34C16.4,7,2,21.4,2,39v40C2,96.6,16.4,111,34,111z     M6,39c0-15.4,12.6-28,28-28h40c15.4,0,28,12.6,28,28v68H34C18.6,107,6,94.4,6,79V39z" fill="#3EBBC4"/><path d="M54,81c12.1,0,22-9.9,22-22s-9.9-22-22-22s-22,9.9-22,22S41.9,81,54,81z M54,41c9.9,0,18,8.1,18,18    s-8.1,18-18,18s-18-8.1-18-18S44.1,41,54,41z" fill="#3EBBC4"/></g></g></svg>