<?xml version="1.0" ?><!DOCTYPE svg  PUBLIC '-//W3C//DTD SVG 1.1//EN'  'http://www.w3.org/Graphics/SVG/1.1/DTD/svg11.dtd'><svg enable-background="new 0 0 128 128" id="Слой_1" version="1.1" viewBox="0 0 128 128" xml:space="preserve" xmlns="http://www.w3.org/2000/svg" xmlns:xlink="http://www.w3.org/1999/xlink"><g><g><path d="M2,2v124h2.2H5h81V97H31V2H2z M27,6v92.2l-21,21V106h8v-4H6v-6h8v-4H6v-6h8v-4H6v-6h8v-4H6v-6h8v-4H6v-6h8    v-4H6v-6h8v-4H6v-6h8v-4H6v-6h8v-4H6v-6h8v-4H6V6H27z M82,122H8.8l21-21H82V122z" fill="#3EBBC4"/></g></g></svg>