<?xml version="1.0" ?><!DOCTYPE svg  PUBLIC '-//W3C//DTD SVG 1.1//EN'  'http://www.w3.org/Graphics/SVG/1.1/DTD/svg11.dtd'><svg enable-background="new 0 0 128 128" id="Слой_1" version="1.1" viewBox="0 0 128 128" xml:space="preserve" xmlns="http://www.w3.org/2000/svg" xmlns:xlink="http://www.w3.org/1999/xlink"><g><g><path d="M64,126c7.7,0,14-6.3,14-14V77c0-4.4,3.6-8,8-8h2c6.6,0,12-5.4,12-12V44v-2V14c0-4.4,3.6-8,8-8h6V2H98    c-3.1,0-5.9,1.2-8,3.1V2H28v40v2v13c0,6.6,5.4,12,12,12h2c4.4,0,8,3.6,8,8v35C50,119.7,56.3,126,64,126z M32,6h44v8h4V6h6v18h4V14    c0-4.4,3.6-8,8-8h1.1c-1.9,2.1-3.1,4.9-3.1,8v28H32V6z M42,65h-2c-4.4,0-8-3.6-8-8V46h64v11c0,4.4-3.6,8-8,8h-2    c-6.6,0-12,5.4-12,12v35c0,5.5-4.5,10-10,10s-10-4.5-10-10V77C54,70.4,48.6,65,42,65z" fill="#3EBBC4"/><circle cx="64" cy="112" fill="#3EBBC4" r="3"/></g></g></svg>